<?xml version="1.0" standalone="no"?>
<!DOCTYPE svg PUBLIC "-//W3C//DTD SVG 20010904//EN"
 "http://www.w3.org/TR/2001/REC-SVG-20010904/DTD/svg10.dtd">
<svg version="1.0" xmlns="http://www.w3.org/2000/svg"
 width="154.000000pt" height="154.000000pt" viewBox="0 0 154.000000 154.000000"
 preserveAspectRatio="xMidYMid meet">
<metadata>
Created by potrace 1.14, written by Peter Selinger 2001-2017
</metadata>
<g transform="translate(0.000000,154.000000) scale(0.100000,-0.100000)"
fill="#000000" stroke="none">
<path d="M576 1444 c-29 -28 -31 -63 -5 -90 18 -19 30 -24 49 -19 55 14 73 63
36 100 -29 29 -58 32 -80 9z"/>
<path d="M870 1440 c-28 -28 -25 -64 6 -89 33 -26 45 -26 74 -3 43 35 15 112
-41 112 -10 0 -28 -9 -39 -20z"/>
<path d="M289 1247 c-46 -35 -50 -88 -9 -129 27 -26 36 -30 68 -25 70 12 97
92 47 142 -27 27 -79 33 -106 12z"/>
<path d="M555 1235 c-51 -50 -14 -145 57 -145 35 0 88 48 88 80 0 78 -91 119
-145 65z"/>
<path d="M855 1235 c-25 -24 -32 -65 -19 -100 8 -19 55 -45 83 -45 26 0 70 39
76 68 15 81 -83 135 -140 77z"/>
<path d="M1116 1238 c-42 -38 -37 -102 10 -133 57 -37 140 14 128 79 -12 71
-86 100 -138 54z"/>
<path d="M563 978 c-27 -13 -54 -67 -48 -98 12 -65 66 -99 126 -81 44 13 69
48 69 96 0 72 -79 116 -147 83z"/>
<path d="M870 983 c-26 -7 -55 -56 -55 -95 0 -67 64 -110 130 -88 69 23 87
104 36 159 -28 30 -64 38 -111 24z"/>
<path d="M1135 978 c-32 -17 -45 -39 -45 -78 0 -48 33 -80 81 -80 32 0 78 28
80 48 0 4 2 16 4 26 11 58 -67 113 -120 84z"/>
<path d="M305 968 c-51 -27 -60 -84 -20 -123 50 -50 128 -20 128 49 0 60 -59
101 -108 74z"/>
<path d="M77 942 c-22 -24 -21 -65 1 -85 40 -36 102 -9 102 45 0 51 -69 78
-103 40z"/>
<path d="M1346 931 c-39 -74 63 -131 104 -58 13 24 13 30 0 55 -12 20 -24 28
-52 30 -32 3 -39 -1 -52 -27z"/>
<path d="M568 694 c-61 -32 -70 -110 -18 -156 42 -39 92 -38 131 1 80 80 -13
207 -113 155z"/>
<path d="M850 683 c-37 -31 -46 -72 -25 -116 45 -94 185 -63 185 41 0 40 -33
90 -62 94 -55 6 -73 3 -98 -19z"/>
<path d="M285 655 c-40 -39 -32 -96 15 -120 66 -34 133 24 109 95 -20 55 -82
68 -124 25z"/>
<path d="M1111 656 c-60 -64 1 -163 84 -136 42 14 54 28 59 71 9 75 -91 120
-143 65z"/>
<path d="M77 642 c-25 -28 -21 -67 9 -91 57 -45 130 43 76 92 -24 22 -65 21
-85 -1z"/>
<path d="M1364 652 c-44 -29 -33 -93 18 -111 25 -9 33 -7 54 14 13 13 24 33
24 45 0 41 -62 75 -96 52z"/>
<path d="M279 380 c-23 -22 -29 -36 -25 -57 2 -15 5 -31 5 -35 2 -18 48 -48
74 -48 40 0 67 17 82 53 17 40 2 83 -36 102 -42 22 -67 18 -100 -15z"/>
<path d="M575 398 c-76 -44 -49 -159 37 -158 37 1 59 14 76 47 19 35 14 63
-17 94 -31 30 -63 36 -96 17z"/>
<path d="M869 395 c-37 -20 -50 -62 -34 -102 26 -61 97 -72 139 -22 32 38 28
83 -10 117 -29 25 -58 27 -95 7z"/>
<path d="M1133 400 c-27 -11 -44 -42 -45 -82 -1 -41 40 -78 87 -78 68 0 105
92 57 142 -21 22 -70 31 -99 18z"/>
<path d="M575 145 c-32 -31 -32 -55 -1 -84 30 -28 68 -23 91 13 19 28 7 69
-24 85 -29 16 -39 14 -66 -14z"/>
<path d="M887 158 c-51 -18 -44 -101 10 -114 50 -13 97 52 67 95 -17 24 -42
30 -77 19z"/>
</g>
</svg>
